<svg xmlns="http://www.w3.org/2000/svg" width="1134" height="1134" viewBox="0 0 1134 1134" version="1.1"><path d="M 463.500 259.667 C 445.313 270.904, 434.881 282.316, 425.256 301.500 C 411.871 328.179, 408.469 362.443, 416.122 393.500 C 418.804 404.383, 427.577 421.977, 434.369 430.090 C 440.402 437.296, 450.147 445.626, 459.500 451.570 C 466.714 456.155, 490.093 467.447, 510 475.961 C 558.714 496.798, 574.640 508.551, 581.195 528.500 C 583.004 534.004, 583.496 537.744, 583.498 546 C 583.501 558.709, 581.820 566.842, 577.360 575.706 L 574 582.385 574 616.193 C 574 640.063, 574.323 650, 575.097 650 C 575.701 650, 579.638 648.200, 583.847 645.999 C 610.751 631.934, 628.774 608.009, 637.064 575.355 C 645.019 544.019, 642.749 509.246, 631.264 486.522 C 616.682 457.669, 593.675 440.489, 544 421.360 C 522.940 413.250, 506.505 406.028, 498.652 401.431 C 489.304 395.958, 480.026 386.958, 476.441 379.884 C 470.504 368.168, 470.674 370.008, 470.064 310.730 L 469.500 255.959 463.500 259.667 M 580.343 277.500 C 580.346 281.900, 580.522 283.576, 580.733 281.224 C 580.945 278.872, 580.942 275.272, 580.727 273.224 C 580.512 271.176, 580.339 273.100, 580.343 277.500 M 691 805.607 C 691 820.063, 690.871 821.164, 689.250 820.534 C 681.492 817.521, 668.499 817.589, 659.396 820.690 C 652.575 823.014, 644.990 830.794, 642.003 838.531 C 640.087 843.494, 639.682 846.522, 639.599 856.500 C 639.485 870.358, 641.058 876.661, 646.504 884.160 C 659.487 902.036, 703.784 900.079, 711.653 881.282 C 712.713 878.749, 713 868.692, 713 834.032 L 713 790 702 790 L 691 790 691 805.607 M 430.221 838.428 C 430.493 882.769, 430.550 883.923, 432.597 886.678 C 440.164 896.862, 468.962 900.051, 484.661 892.442 C 490.659 889.534, 496.422 883.560, 499.127 877.447 C 503.851 866.766, 503.774 847.080, 498.966 836.176 C 496.023 829.501, 489.640 823.384, 483.032 820.906 C 475.570 818.107, 464.511 818.069, 456.750 820.815 L 451 822.849 451 807.924 L 451 793 440.471 793 L 429.941 793 430.221 838.428 M 601 802.500 L 601 811 612.500 811 L 624 811 624 802.500 L 624 794 612.500 794 L 601 794 601 802.500 M 283.230 796.485 C 275.757 798.590, 272.360 800.553, 267.451 805.604 C 259.078 814.219, 256.992 829.018, 262.722 839.159 C 266.586 845.999, 271.960 849.638, 284.500 853.908 C 296.922 858.137, 303.618 861.417, 304.964 863.933 C 306.306 866.441, 306.286 870.597, 304.920 873.150 C 301.171 880.154, 280.364 879.204, 267.472 871.441 C 264.329 869.548, 261.587 868, 261.379 868 C 261.170 868, 261 872.918, 261 878.928 L 261 889.856 266.250 891.813 C 274.633 894.936, 282.272 896.148, 293.770 896.178 C 307.651 896.214, 314.166 893.964, 321.543 886.588 C 327.754 880.377, 330.009 874.491, 329.978 864.572 C 329.931 849.555, 322.893 842.624, 301.012 836.048 C 287.344 831.941, 284 829.376, 284 823 C 284 818.324, 285.493 816.359, 290.495 814.449 C 298.797 811.278, 312.226 814.359, 321.740 821.615 L 325.065 824.151 324.782 812.425 L 324.500 800.698 318 798.230 C 309.673 795.068, 291.499 794.156, 283.230 796.485 M 367.531 819.052 C 364.248 819.564, 358.735 820.923, 355.281 822.073 L 349 824.163 349 833.911 L 349 843.659 354.750 840.832 C 368.648 833.999, 384.895 835.334, 388.025 843.566 C 388.877 845.806, 389.432 853.022, 388.750 852.987 C 388.613 852.980, 385.647 852.080, 382.161 850.987 C 378.266 849.766, 373.013 849, 368.537 849 C 351.467 849, 342.493 856.974, 342.661 871.991 C 342.821 886.374, 350.138 893.545, 367.247 896.090 C 378.074 897.700, 393.613 895.925, 400.955 892.239 C 410.529 887.432, 410.500 887.530, 410.500 860.176 L 410.500 836.500 407.695 831.728 C 402.930 823.621, 394.336 819.360, 381.172 818.578 C 376.952 818.327, 370.814 818.540, 367.531 819.052 M 539.500 818.940 C 532.767 820.035, 526.089 821.905, 522.750 823.631 C 520.060 825.020, 520 825.247, 520 834.026 C 520 838.962, 520.293 843, 520.650 843 C 521.008 843, 523.596 841.879, 526.400 840.509 C 539.587 834.068, 555.922 835.289, 558.917 842.941 C 560.443 846.838, 561.331 853.004, 560.361 852.967 C 559.888 852.949, 557.025 852.064, 554 851 C 547.670 848.773, 536.327 848.385, 529.299 850.155 C 523.369 851.648, 516.623 857.993, 515.110 863.500 C 512.386 873.417, 514.355 882.715, 520.418 888.554 C 526.618 894.527, 533.500 896.446, 548.511 896.387 C 566.760 896.315, 578.104 892.116, 581.062 884.337 C 582.379 880.873, 582.240 840.419, 580.895 835.500 C 579.327 829.769, 571.609 822.555, 564.920 820.569 C 558.460 818.651, 546.136 817.861, 539.500 818.940 M 753.081 819.588 C 746.293 821.414, 742.214 823.914, 737.484 829.149 C 732.815 834.317, 730.464 839.619, 728.936 848.420 C 724.435 874.361, 737.629 893.810, 761.500 896.420 C 768.250 897.158, 779.882 895.865, 787.750 893.500 L 793 891.923 793 882.354 C 793 873.638, 792.844 872.849, 791.250 873.496 C 772.709 881.015, 758.607 879.762, 753.184 870.114 C 749.020 862.704, 748.113 863, 775 863 L 799 863 798.983 857.750 C 798.960 850.881, 796.582 839.834, 793.961 834.419 C 792.813 832.048, 789.990 828.271, 787.687 826.026 C 780.272 818.799, 765.936 816.132, 753.081 819.588 M 835.271 819.540 C 825.453 822.184, 818.778 827.859, 814.511 837.190 C 807.174 853.231, 809.335 873.483, 819.601 884.901 C 830.020 896.490, 849.035 899.752, 869.750 893.506 L 875 891.923 875 882.515 L 875 873.108 869.250 875.118 C 856.990 879.404, 845.821 879.415, 840 875.149 C 836.779 872.788, 833 867.229, 833 864.852 C 833 863.100, 834.309 863, 857.148 863 L 881.296 863 880.700 854.250 C 879.021 829.607, 867.780 817.817, 846.201 818.066 C 843.065 818.102, 838.147 818.765, 835.271 819.540 M 602 858 L 602 894 613 894 L 624 894 624 858 L 624 822 613 822 L 602 822 602 858 M 755.657 837.996 C 753.556 839.841, 751.855 842.530, 751.229 844.996 L 750.213 849 763.737 849 L 777.262 849 776.677 845.394 C 775.475 837.987, 771.679 835, 763.470 835 C 760.008 835, 758.342 835.639, 755.657 837.996 M 840.030 836.279 C 836.879 837.874, 833 843.595, 833 846.648 L 833 849 846.452 849 L 859.904 849 858.487 844.250 C 856.549 837.758, 853.172 834.996, 847.194 835.015 C 844.612 835.023, 841.389 835.592, 840.030 836.279 M 455 837.306 L 451.500 838.500 451.226 855.772 C 450.953 872.987, 450.961 873.052, 453.431 875.522 C 454.935 877.026, 457.205 878.069, 459.205 878.175 C 475.224 879.026, 480.509 873.892, 480.489 857.500 C 480.479 849.787, 480.121 847.856, 477.984 844 C 476.448 841.230, 474.145 838.828, 471.995 837.752 C 467.982 835.744, 460.181 835.540, 455 837.306 M 670.020 837.752 C 663.125 841.216, 659.937 850.336, 661.434 862.316 C 662.798 873.236, 668.284 877.990, 679.527 877.996 C 691.189 878.002, 691 878.356, 691 856.541 L 691 838.196 687.851 837.098 C 683.047 835.423, 673.993 835.755, 670.020 837.752 M 369.329 864.396 C 365.240 866.254, 363.644 869.291, 364.463 873.653 C 365.494 879.151, 369.695 881.174, 379.292 880.792 C 384.848 880.570, 387.355 880.054, 388.027 878.991 C 389.390 876.834, 389.239 865.265, 387.835 864.398 C 385.449 862.923, 372.571 862.921, 369.329 864.396 M 541.501 864.002 C 537.559 865.262, 536 867.557, 536 872.102 C 536 875.029, 536.656 876.375, 539.077 878.411 C 541.782 880.687, 543.050 881, 549.577 881 C 559.308 881, 561 879.527, 561 871.059 C 561 867.791, 560.535 864.831, 559.967 864.479 C 558.152 863.358, 544.611 863.007, 541.501 864.002" stroke="none" fill="#a4c96f" fill-rule="evenodd"/><path d="M 479.202 111.022 C 468.040 113.946, 460.528 118.399, 451.463 127.463 C 442.275 136.652, 437.920 144.082, 434.975 155.596 C 433.144 162.755, 433 166.790, 433 210.764 L 433 258.207 436.408 255.215 C 442.172 250.154, 448.888 245.756, 460.430 239.486 L 471.500 233.472 472 197.911 L 472.500 162.349 475.259 158.183 C 476.776 155.892, 479.893 152.776, 482.185 151.259 L 486.353 148.500 567.427 148.201 C 620.513 148.005, 649.708 148.254, 652 148.923 C 656.764 150.312, 662.596 155.329, 665.279 160.347 C 667.397 164.308, 667.523 165.909, 668 194.936 L 668.500 225.372 676.500 227.126 C 680.900 228.090, 688.550 230.293, 693.500 232.022 C 698.450 233.751, 703.312 235.412, 704.303 235.713 C 706.024 236.236, 706.093 234.426, 705.801 196.381 L 705.495 156.500 702.750 149.639 C 694.754 129.647, 679.557 116.130, 659.234 110.932 C 652.059 109.097, 647.537 109.003, 569.090 109.055 C 491.079 109.107, 486.095 109.216, 479.202 111.022 M 488 308.779 L 488 376.710 496.750 380.742 C 501.563 382.960, 510.450 386.691, 516.500 389.033 C 528.168 393.550, 541.772 399.177, 551.241 403.404 L 556.982 405.967 557.241 353.233 L 557.500 300.500 584 300.202 C 625.332 299.737, 640.439 301.757, 657.653 310.050 C 671.066 316.511, 678.990 324.096, 684.867 336.100 C 689.841 346.259, 691.614 352.923, 693.088 366.998 C 694.997 385.231, 692.152 403.984, 685.369 417.875 C 681.104 426.608, 671.320 437.049, 663 441.747 C 656.004 445.698, 644.299 449.630, 634.718 451.248 L 627.247 452.510 633.687 460.505 C 642.142 471.002, 649.338 485.610, 652.649 499 C 654.077 504.775, 655.317 509.589, 655.404 509.699 C 655.492 509.808, 659.452 509.048, 664.203 508.010 C 707.776 498.487, 739.587 473.996, 755.092 438.032 C 763.047 419.581, 766.329 401.118, 766.297 375 C 766.262 346.746, 762.576 328.303, 752.984 308.388 C 738.237 277.772, 706.708 255.076, 666.915 246.431 C 645.843 241.853, 644.828 241.802, 564.750 241.315 L 488 240.848 488 308.779 M 560.465 257.952 C 554.751 260.268, 554.497 266.464, 560 269.311 C 562.777 270.747, 565.205 271.042, 571.750 270.740 L 580 270.359 580 278.179 C 580 284.270, 579.686 286, 578.579 286 C 577.798 286, 576.860 284.639, 576.495 282.976 C 576.129 281.313, 574.704 278.613, 573.326 276.976 C 571.141 274.379, 570.162 274, 565.634 274 C 558.048 274, 556 275.793, 556 282.434 C 556 288.425, 557.051 289.809, 562.237 290.651 C 566.252 291.303, 569 289.190, 569 285.452 C 569 282.497, 565.078 279.656, 562.391 280.665 C 560.721 281.292, 560.660 281.178, 561.872 279.687 C 564.718 276.189, 572 279.193, 572 283.865 C 572 287.112, 575.854 291, 579.073 291 C 584.757 291, 586 288.331, 586 276.122 C 586 268.715, 586.479 264.099, 587.500 261.654 C 588.325 259.680, 589 257.825, 589 257.532 C 589 256.292, 585.026 257.132, 584.238 258.539 C 583.464 259.922, 583.080 259.922, 580.439 258.545 C 577.252 256.883, 564.067 256.492, 560.465 257.952 M 598.223 258.557 C 595.047 260.781, 595.224 265.923, 598.583 269.076 C 600.861 271.213, 602.074 271.497, 608.833 271.470 C 617.670 271.436, 622.118 269.607, 624.483 265.033 C 626.711 260.725, 626.423 259, 623.475 259 C 621.717 259, 620.668 259.743, 620.020 261.448 C 618.710 264.892, 614.928 267.068, 609.848 267.301 L 605.500 267.500 605.816 263.853 C 606.066 260.974, 605.651 259.869, 603.844 258.603 C 601.034 256.635, 600.967 256.635, 598.223 258.557 M 640.655 259.829 C 639.745 260.835, 639 262.602, 639 263.757 C 639 266.018, 641.431 269, 643.274 269 C 643.897 269, 642.733 270.713, 640.689 272.807 C 630.906 282.825, 635.794 292.783, 651.395 294.617 C 657.543 295.339, 661.837 294.091, 663.752 291.026 C 664.878 289.223, 670 268.242, 670 265.433 C 670 264.221, 666.292 262.375, 665.483 263.183 C 665.282 263.384, 663.916 268.938, 662.448 275.525 C 660.979 282.111, 659.322 288.063, 658.766 288.750 C 657.290 290.574, 649.056 290.274, 645 288.248 C 639.930 285.716, 639.715 281.903, 644.372 277.123 C 648.021 273.378, 651 267.527, 651 264.105 C 651 261.868, 646.577 258, 644.020 258 C 643.080 258, 641.565 258.823, 640.655 259.829 M 563.166 262.008 C 558.729 263.889, 562.333 266.670, 569.500 266.895 C 571.150 266.946, 574.246 266.504, 576.381 265.911 C 579.940 264.923, 580.129 264.701, 578.661 263.233 C 576.760 261.331, 566.648 260.532, 563.166 262.008 M 599 262.500 C 599 263.333, 599.889 264, 601 264 C 602.111 264, 603 263.333, 603 262.500 C 603 261.667, 602.111 261, 601 261 C 599.889 261, 599 261.667, 599 262.500 M 642 263.500 C 642 264.333, 642.889 265, 644 265 C 645.111 265, 646 264.333, 646 263.500 C 646 262.667, 645.111 262, 644 262 C 642.889 262, 642 262.667, 642 263.500 M 682.775 276.559 C 675.949 280.263, 676.899 289, 684.129 289 C 687.366 289, 689 287.256, 689 283.800 C 689 282.260, 689.389 281, 689.865 281 C 691.955 281, 696 285.319, 696 287.550 C 696 288.935, 692.979 294.173, 688.881 299.892 C 684.965 305.358, 681.786 310.205, 681.815 310.665 C 681.844 311.124, 682.708 312.058, 683.736 312.741 C 685.428 313.864, 686.325 312.960, 693.172 303.241 C 697.334 297.333, 701.046 291.510, 701.421 290.300 C 702.737 286.056, 697.574 279.391, 690.768 276.548 C 686.320 274.689, 686.220 274.689, 682.775 276.559 M 597.200 277.200 C 595.912 278.488, 595.608 282.815, 596.621 285.455 C 598.236 289.664, 610.142 291.411, 618 288.592 C 621.672 287.275, 626 282.006, 626 278.852 C 626 275.675, 621.099 276.417, 619.930 279.771 C 618.667 283.393, 615.973 284.979, 609.851 285.704 L 604.854 286.296 605.540 282.637 C 605.985 280.265, 605.792 278.454, 604.991 277.489 C 603.506 275.700, 598.872 275.528, 597.200 277.200 M 599.173 280.659 C 599.368 281.672, 600.196 282.500, 601.014 282.500 C 603.157 282.500, 602.848 279.594, 600.659 279.173 C 599.323 278.916, 598.916 279.323, 599.173 280.659 M 682.446 283.087 C 681.416 284.755, 683.733 286.667, 685.113 285.287 C 686.267 284.133, 685.545 282, 684 282 C 683.515 282, 682.816 282.489, 682.446 283.087 M 562 285.441 C 562 286.234, 562.359 287.104, 562.798 287.375 C 564.077 288.166, 566.323 286.332, 565.569 285.112 C 564.577 283.506, 562 283.744, 562 285.441 M 709 305.293 C 707.075 306.463, 705.050 307.947, 704.500 308.590 C 703.950 309.234, 702.150 310.071, 700.500 310.451 C 695.759 311.544, 691.998 315.745, 692.010 319.937 C 692.022 324.371, 695.801 332.598, 699.513 336.270 C 704.506 341.210, 706.215 341.014, 719.750 333.949 C 726.487 330.432, 732 327.291, 732 326.969 C 732 326.646, 731.397 325.558, 730.661 324.551 C 729.397 322.822, 728.723 323.040, 718.678 328.428 C 706.324 335.054, 703.761 335.281, 700.254 330.059 C 696.065 323.823, 696.045 317.755, 700.209 316.434 C 701.923 315.890, 702.983 316.415, 704.967 318.791 C 706.980 321.203, 707.887 321.643, 709.260 320.875 C 710.844 319.988, 710.866 319.642, 709.507 317.014 C 708.686 315.426, 708.271 313.458, 708.584 312.641 C 709.374 310.583, 712 309.713, 712 311.508 C 712 313.623, 716.551 316.277, 718.900 315.532 C 720.981 314.871, 722.596 311.584, 722.109 309 C 721.593 306.261, 717.715 302.998, 715.076 303.083 C 713.659 303.128, 710.925 304.123, 709 305.293 M 287.927 307.064 C 280.611 308.140, 270.407 312.036, 263.803 316.274 C 251.899 323.914, 240.725 339.581, 237.537 353.103 C 235.223 362.923, 235.260 524.330, 237.579 533.356 C 242.194 551.320, 254.893 566.443, 271.896 574.225 C 284.174 579.844, 286.631 580, 363.088 580 L 433 580 433 651.340 C 433 719.069, 433.100 723.070, 434.972 730.391 C 439.386 747.649, 450.492 761.904, 465.590 769.689 C 480.277 777.263, 476.552 777.002, 569.564 776.985 C 660.374 776.969, 658.876 777.057, 671.412 771.012 C 685.085 764.419, 696.225 752.312, 702.247 737.500 L 705.500 729.500 705.780 654.792 L 706.061 580.084 779.780 579.767 C 847.895 579.473, 853.918 579.311, 859 577.628 C 876.020 571.993, 889.962 560.262, 896.857 545.774 C 903.771 531.248, 903.500 535.478, 903.500 442 L 903.500 357.500 900.761 349.422 C 892.986 326.493, 874.646 310.906, 850.911 307.055 C 847.357 306.479, 828.959 306.012, 809.633 306.008 L 774.767 306 775.294 308.250 C 775.585 309.488, 777.158 315, 778.790 320.500 C 780.422 326, 782.303 333.762, 782.969 337.750 L 784.181 345 814.724 345 C 835.879 345, 846.533 345.376, 849.384 346.222 C 854.796 347.830, 862.170 355.204, 863.778 360.616 C 865.483 366.360, 865.541 519.462, 863.839 525.142 C 862.285 530.328, 856.965 536.354, 851.682 538.912 C 847.417 540.976, 846.455 541, 766.434 541.006 C 713.846 541.009, 684.197 541.373, 681.781 542.044 C 677.290 543.291, 672.540 547.121, 670.214 551.369 C 668.646 554.234, 668.457 561.604, 668 638 C 667.502 721.174, 667.492 721.516, 665.342 725.500 C 662.816 730.180, 658.899 734.027, 654 736.636 C 650.729 738.378, 647.452 738.500, 604 738.500 L 557.500 738.500 557 641.477 L 556.500 544.454 551.584 537.477 C 542.988 525.279, 532.400 516.039, 509.547 500.792 L 488.500 486.749 488.246 611.875 C 488.035 715.946, 487.766 737, 486.646 737 C 484.278 737, 477.361 731.319, 474.891 727.346 L 472.500 723.500 472 639.500 C 471.544 562.927, 471.350 555.226, 469.801 552.398 C 467.384 547.986, 461.690 543.286, 457.277 542.060 C 454.787 541.369, 426.208 541.009, 373.399 541.006 C 316.190 541.002, 292.327 540.675, 289.899 539.862 C 284.724 538.129, 280.338 534.431, 277.272 529.216 L 274.500 524.500 274.500 442.921 L 274.500 361.343 277.526 356.448 C 279.402 353.415, 282.415 350.402, 285.447 348.526 L 290.341 345.500 341.670 345.224 C 369.902 345.072, 393 344.588, 393 344.149 C 393 341.092, 397.403 320.095, 399.375 313.750 L 401.783 306 347.641 306.122 C 317.864 306.189, 290.992 306.613, 287.927 307.064 M 713.784 346.907 C 706.363 347.562, 704.379 348.854, 703.418 353.659 C 702.937 356.063, 703.281 357.281, 704.896 358.896 C 707.551 361.551, 709.444 361.556, 712.087 358.913 C 713.548 357.452, 713.992 356.104, 713.568 354.413 C 712.963 352.004, 712.976 352, 721.458 352 C 729.418 352, 730.057 352.158, 731.593 354.501 C 732.523 355.921, 733.264 359.175, 733.307 362.032 C 733.426 369.946, 732.020 370.784, 717.215 371.615 C 710.458 371.994, 704.692 372.690, 704.401 373.161 C 704.109 373.632, 704.145 374.882, 704.480 375.937 C 705.047 377.725, 705.856 377.818, 716.295 377.291 C 730.613 376.570, 733.975 375.513, 736.313 371 C 737.698 368.326, 738.022 365.965, 737.687 361 C 736.733 346.846, 733.835 345.138, 713.784 346.907 M 749.098 356.265 C 745.611 358.058, 744.107 360.812, 745.977 361.978 C 746.964 362.593, 747.986 362.418, 749.056 361.449 C 751.410 359.319, 752.880 359.674, 753.601 362.547 C 754.332 365.459, 753.418 372.350, 751.933 375.125 C 750.523 377.760, 748.124 377.456, 747 374.500 C 746.005 371.883, 743.220 371.102, 742.543 373.250 C 742.327 373.938, 741.872 376.580, 741.533 379.122 C 740.979 383.274, 741.135 383.802, 743.068 384.308 C 744.646 384.720, 745.358 384.346, 745.735 382.907 C 746.102 381.502, 746.795 381.117, 748.173 381.555 C 750.868 382.410, 754.899 379.486, 756.584 375.454 C 757.363 373.590, 758 369.329, 758 365.987 C 758 360.867, 757.613 359.522, 755.545 357.455 C 752.738 354.647, 752.374 354.580, 749.098 356.265 M 321 953.500 L 321 1005 331.984 1005 L 342.968 1005 343.234 977.763 L 343.500 950.526 346.397 949.138 C 350.251 947.291, 358.703 947.164, 362.797 948.891 C 368.981 951.499, 369.464 953.691, 369.814 980.750 L 370.129 1005 380.564 1005 L 391 1005 390.994 977.250 C 390.991 961.746, 390.545 947.904, 389.984 945.882 C 388.247 939.628, 384.874 935.687, 378.561 932.533 C 373.297 929.904, 371.647 929.576, 364.061 929.653 C 357.879 929.716, 353.972 930.332, 350 931.869 C 346.975 933.041, 344.163 933.999, 343.750 933.999 C 343.337 934, 343 926.800, 343 918 L 343 902 332 902 L 321 902 321 953.500 M 225 956.419 L 225 1005 237 1005 L 249 1005 249 989 L 249 973 262.750 972.988 C 271.334 972.981, 278.478 972.450, 281.764 971.575 C 297.166 967.475, 305 956.887, 305 940.171 C 305 924.691, 299.630 915.763, 287.407 910.921 C 281.803 908.702, 280.050 908.563, 253.250 908.210 L 225 907.837 225 956.419 M 249 940.500 L 249 955 259.750 954.985 C 271.440 954.969, 274.058 954.182, 277.404 949.677 C 279.016 947.505, 279.500 945.386, 279.500 940.500 C 279.500 929.150, 275.192 926.152, 258.750 926.056 L 249 926 249 940.500 M 431.387 929.933 C 425.521 930.868, 416.091 933.796, 414.250 935.255 C 413.416 935.915, 413 939.237, 413 945.229 C 413 952.044, 413.302 954.081, 414.250 953.664 C 426.751 948.158, 428.739 947.613, 436.500 947.557 C 448.501 947.471, 453 950.899, 453 960.130 C 453 962.972, 452.630 964.012, 451.750 963.643 C 444.880 960.765, 438.985 959.806, 430.460 960.179 C 422.337 960.534, 420.627 960.944, 416.445 963.542 C 410.272 967.375, 407.661 972.366, 407.154 981.302 C 406.676 989.725, 408.736 995.683, 413.602 999.956 C 420.223 1005.768, 422.915 1006.420, 440.500 1006.462 C 457.452 1006.502, 462.168 1005.694, 468.099 1001.732 C 474.404 997.520, 474.997 994.981, 474.998 972.193 C 474.999 959.950, 474.533 950.033, 473.825 947.221 C 472.176 940.672, 465.096 933.708, 457.873 931.531 C 451.433 929.590, 438.455 928.807, 431.387 929.933 M 518.075 930.022 C 511.625 931.382, 504.169 933.941, 498.750 936.655 L 494 939.034 494 972.017 L 494 1005 505 1005 L 516 1005 516 976.638 L 516 948.276 522.250 947.709 C 525.688 947.396, 531.987 947.459, 536.250 947.847 L 544 948.553 544 940.375 L 544 932.196 540.750 931.055 C 536.265 929.480, 523.421 928.895, 518.075 930.022 M 582 930.527 C 577.325 931.260, 569.788 933.036, 565.250 934.473 L 557 937.087 557 971.044 L 557 1005 568 1005 L 579 1005 579 977.100 L 579 949.199 584.027 947.994 C 589.528 946.674, 595.198 947.309, 598.834 949.652 C 603.426 952.611, 604 956.146, 604 981.468 L 604 1005 614.500 1005 L 625 1005 625 977.535 C 625 950.090, 625.002 950.069, 627.250 948.821 C 631.063 946.703, 641.396 947.161, 644.677 949.594 C 649.330 953.044, 649.882 956.418, 649.944 981.750 L 650 1005 660.500 1005 L 671 1005 671 976.649 C 671 958.113, 670.606 947.122, 669.862 944.899 C 666.977 936.283, 660.854 931.822, 649.363 929.966 C 641.453 928.688, 634.553 929.285, 624.114 932.152 C 617.184 934.056, 616.504 934.081, 613.114 932.566 C 609.026 930.739, 599.241 928.966, 594 929.103 C 592.075 929.153, 586.675 929.794, 582 930.527 M 711.387 929.933 C 705.521 930.868, 696.091 933.796, 694.250 935.255 C 693.416 935.915, 693 939.237, 693 945.229 C 693 952.044, 693.302 954.081, 694.250 953.664 C 706.298 948.358, 708.849 947.644, 716 947.573 C 728.333 947.453, 733 950.880, 733 960.057 C 733 963.626, 732.753 964.111, 731.250 963.487 C 722.067 959.671, 708.774 958.835, 700.751 961.569 C 695.450 963.375, 690.085 968.404, 688.350 973.193 C 686.837 977.371, 686.693 986.353, 688.060 991.277 C 689.459 996.315, 693.970 1001.270, 699.762 1004.132 C 704.129 1006.290, 705.753 1006.475, 720.500 1006.487 C 737.439 1006.501, 742.185 1005.683, 748.099 1001.732 C 754.404 997.520, 754.997 994.981, 754.998 972.193 C 754.999 959.950, 754.533 950.033, 753.825 947.221 C 752.176 940.672, 745.096 933.708, 737.873 931.531 C 731.433 929.590, 718.455 928.807, 711.387 929.933 M 799 930.315 C 779.423 934.785, 768.455 951.029, 770.284 972.843 C 772.184 995.515, 787.880 1008.118, 812.500 1006.742 C 818.103 1006.429, 823.387 1005.484, 826.500 1004.239 L 831.500 1002.240 831.788 993.120 C 831.946 988.104, 831.870 984, 831.620 984 C 831.370 984, 829.005 984.926, 826.365 986.058 C 820.349 988.636, 810.774 989.573, 805.381 988.110 C 796.395 985.674, 792.059 979.054, 792.022 967.718 C 791.984 955.990, 796.306 950.116, 806.535 947.993 C 812.645 946.724, 817.549 947.264, 825.851 950.121 C 828.855 951.154, 831.485 952, 831.694 952 C 831.904 952, 831.946 947.855, 831.788 942.789 L 831.500 933.577 825.880 931.869 C 818.072 929.495, 805.719 928.781, 799 930.315 M 842.250 932.718 C 842.525 933.698, 849.141 950.191, 856.953 969.370 C 867.512 995.292, 870.995 1004.883, 870.527 1006.748 C 870.181 1008.128, 868.605 1010.549, 867.026 1012.128 L 864.154 1015 544.577 1015 L 225 1015 225 1024.500 L 225 1034 545.634 1034 C 790.446 1034, 867.206 1033.719, 870.236 1032.811 C 876.037 1031.073, 883.143 1024.159, 887.344 1016.165 C 890.205 1010.721, 921 933.137, 921 931.374 C 921 931.133, 915.780 931.063, 909.400 931.218 L 897.800 931.500 890.201 955.218 C 886.022 968.262, 882.360 978.693, 882.063 978.397 C 881.767 978.100, 878.130 967.427, 873.981 954.679 L 866.438 931.500 854.094 931.218 C 842.660 930.957, 841.787 931.068, 842.250 932.718 M 434.354 974.692 C 431.441 975.262, 429.152 977.988, 428.391 981.795 C 427.850 984.502, 428.266 985.466, 431.279 988.479 C 434.589 991.789, 435.192 992, 441.335 992 C 444.929 992, 449.024 991.561, 450.435 991.025 C 452.869 990.099, 453 989.673, 453 982.650 L 453 975.250 449.875 974.625 C 446.546 973.959, 437.910 973.996, 434.354 974.692 M 713.242 975.494 C 707.255 978.096, 706.740 984.921, 712.186 989.503 C 714.669 991.593, 716.191 992, 721.512 992 C 725.009 992, 729.024 991.561, 730.435 991.025 C 732.869 990.099, 733 989.673, 733 982.650 L 733 975.250 729.875 974.625 C 724.653 973.581, 716.687 973.997, 713.242 975.494" stroke="none" fill="#7cacdc" fill-rule="evenodd"/><path d="M 0 567.001 L 0 1134.002 567.250 1133.751 L 1134.500 1133.500 1134.751 566.750 L 1135.002 0 567.501 0 L 0 0 0 567.001 M 0.497 567.500 C 0.497 879.350, 0.611 1006.776, 0.750 850.668 C 0.889 694.560, 0.889 439.410, 0.750 283.668 C 0.611 127.926, 0.497 255.650, 0.497 567.500 M 479.362 110.965 C 457.058 116.863, 440.651 133.405, 434.935 155.756 C 433.155 162.713, 433 167.128, 433 210.753 L 433 258.186 437.750 254.242 C 444.315 248.790, 452.026 243.815, 462.554 238.239 L 471.500 233.500 472 198.500 C 472.332 175.274, 472.887 162.640, 473.652 160.944 C 475.665 156.474, 479.847 152.292, 484.483 150.113 C 488.942 148.017, 489.627 148, 569.521 148 C 634.835 148, 650.673 148.255, 653.282 149.348 C 658.040 151.342, 662.799 155.711, 665.294 160.376 C 667.393 164.299, 667.524 165.976, 668 194.845 L 668.500 225.190 679.880 228.057 C 686.139 229.634, 694.248 232.066, 697.901 233.462 C 701.554 234.858, 704.894 236, 705.324 236 C 705.754 236, 705.969 218.113, 705.803 196.250 L 705.500 156.500 702.247 148.500 C 696.317 133.916, 686.058 122.592, 672.638 115.817 C 659.478 109.174, 665.963 109.593, 572 109.323 C 490.940 109.090, 486.129 109.176, 479.362 110.965 M 488 308.923 L 488 376.980 494.750 380.045 C 498.462 381.731, 510.982 386.891, 522.570 391.512 C 534.159 396.134, 546.534 401.283, 550.070 402.956 L 556.500 405.997 557 353.249 L 557.500 300.500 583 300.196 C 624.897 299.697, 641.272 301.930, 658.726 310.522 C 679.547 320.771, 690.171 338.263, 693.047 367.031 C 694.212 378.687, 693.175 393.676, 690.485 404.057 C 685.213 424.403, 673.093 438.240, 653.812 445.925 C 646.842 448.704, 633.400 452, 629.042 452 C 626.218 452, 626.481 453.135, 630.102 456.563 C 634.612 460.833, 641.233 470.435, 645.377 478.712 C 648.991 485.933, 653.987 501.343, 654.015 505.362 C 654.049 510.035, 655.070 510.295, 664.604 508.051 C 692.084 501.584, 712.320 491.313, 729.021 475.358 C 749.226 456.054, 760.056 433.913, 765.149 401.500 C 767.263 388.050, 766.718 357.640, 764.110 343.500 C 759.201 316.880, 750.517 298.892, 734.459 282.085 C 718.748 265.641, 697.847 254.247, 670.870 247.421 C 648.819 241.842, 646.490 241.707, 564.250 241.271 L 488 240.866 488 308.923 M 463.500 259.667 C 445.313 270.904, 434.881 282.316, 425.256 301.500 C 411.871 328.179, 408.469 362.443, 416.122 393.500 C 418.804 404.383, 427.577 421.977, 434.369 430.090 C 440.402 437.296, 450.147 445.626, 459.500 451.570 C 466.714 456.155, 490.093 467.447, 510 475.961 C 558.714 496.798, 574.640 508.551, 581.195 528.500 C 583.004 534.004, 583.496 537.744, 583.498 546 C 583.501 558.709, 581.820 566.842, 577.360 575.706 L 574 582.385 574 616.193 C 574 640.063, 574.323 650, 575.097 650 C 575.701 650, 579.638 648.200, 583.847 645.999 C 610.751 631.934, 628.774 608.009, 637.064 575.355 C 645.019 544.019, 642.749 509.246, 631.264 486.522 C 616.682 457.669, 593.675 440.489, 544 421.360 C 522.940 413.250, 506.505 406.028, 498.652 401.431 C 489.304 395.958, 480.026 386.958, 476.441 379.884 C 470.504 368.168, 470.674 370.008, 470.064 310.730 L 469.500 255.959 463.500 259.667 M 560 258.752 C 557 260.250, 556.500 261, 556.500 264 C 556.500 266.986, 557.014 267.767, 560 269.321 C 562.879 270.820, 565.052 271.053, 572.250 270.636 L 581 270.130 581 277.442 C 581 282.564, 580.571 285.111, 579.570 285.942 C 578.428 286.890, 577.924 286.726, 577.070 285.130 C 576.481 284.031, 576 282.461, 576 281.642 C 576 280.824, 574.835 278.769, 573.411 277.077 C 571.108 274.339, 570.226 274, 565.411 274 C 558.235 274, 556 276.108, 556 282.878 C 556 288.283, 557.043 289.659, 561.872 290.624 C 567.980 291.846, 571.666 284.793, 566.641 281.500 C 565.235 280.579, 563.518 280.242, 562.391 280.665 C 560.721 281.292, 560.660 281.178, 561.872 279.687 C 564.746 276.155, 572 279.204, 572 283.944 C 572 285.014, 573.045 287.104, 574.323 288.589 C 576.342 290.936, 577.124 291.199, 580.311 290.602 C 582.354 290.218, 584.424 289.077, 584.988 288.023 C 585.545 286.983, 586 281.432, 586 275.688 C 586 268.667, 586.492 264.068, 587.500 261.654 C 588.325 259.680, 589 257.825, 589 257.532 C 589 256.292, 585.026 257.132, 584.238 258.539 C 583.464 259.922, 583.080 259.922, 580.439 258.545 C 576.289 256.381, 564.507 256.500, 560 258.752 M 598.223 258.557 C 595.047 260.781, 595.224 265.923, 598.583 269.076 C 600.861 271.213, 602.074 271.497, 608.833 271.470 C 617.670 271.436, 622.118 269.607, 624.483 265.033 C 626.672 260.799, 626.415 259, 623.621 259 C 621.937 259, 620.890 259.850, 620.036 261.914 C 618.866 264.738, 616.383 266.258, 610.822 267.556 C 607.239 268.392, 603.408 267.192, 604.899 265.701 C 606.720 263.880, 606.144 260.214, 603.777 258.557 C 602.555 257.701, 601.305 257, 601 257 C 600.695 257, 599.445 257.701, 598.223 258.557 M 641.219 259.559 C 638.293 261.608, 638.374 265.436, 641.391 267.703 L 643.782 269.500 639.891 273.728 C 636.555 277.353, 636 278.606, 636 282.523 C 636 288.304, 638.713 291.243, 646.062 293.426 C 654.112 295.816, 658.428 295.497, 661.956 292.250 C 664.494 289.914, 665.325 287.784, 667.472 278.116 C 668.862 271.854, 670 266.147, 670 265.433 C 670 264.221, 666.292 262.375, 665.483 263.183 C 665.282 263.384, 663.916 268.938, 662.448 275.525 C 660.979 282.111, 659.322 288.063, 658.766 288.750 C 657.144 290.755, 647.987 290.289, 644.250 288.011 C 639.720 285.249, 639.797 281.297, 644.467 276.892 C 647.916 273.639, 651 267.617, 651 264.135 C 651 260.098, 644.675 257.139, 641.219 259.559 M 563.250 261.977 C 562.013 262.504, 561 263.411, 561 263.993 C 561 266.811, 572.060 267.952, 577.376 265.682 C 580.027 264.549, 580.118 264.343, 578.542 263.035 C 576.488 261.330, 566.405 260.633, 563.250 261.977 M 599 262.500 C 599 263.333, 599.889 264, 601 264 C 602.111 264, 603 263.333, 603 262.500 C 603 261.667, 602.111 261, 601 261 C 599.889 261, 599 261.667, 599 262.500 M 642 263.500 C 642 264.333, 642.889 265, 644 265 C 645.111 265, 646 264.333, 646 263.500 C 646 262.667, 645.111 262, 644 262 C 642.889 262, 642 262.667, 642 263.500 M 683.249 276.537 C 675.976 279.596, 676.639 289, 684.129 289 C 687.366 289, 689 287.256, 689 283.800 C 689 280.457, 689.859 280.314, 693.365 283.073 C 697.613 286.414, 696.799 289.338, 688.515 300.500 C 681.136 310.441, 681.105 310.510, 683.157 312.250 C 685.165 313.952, 685.306 313.885, 688.422 309.750 C 698.463 296.423, 701 292.177, 701 288.700 C 701 280.885, 690.317 273.566, 683.249 276.537 M 597.245 277.155 C 595.918 278.482, 595.595 282.781, 596.621 285.455 C 598.384 290.048, 611.017 291.537, 618.684 288.057 C 625.058 285.163, 628.624 277, 623.513 277 C 621.626 277, 620.681 277.827, 619.593 280.431 C 618.065 284.088, 613.891 285.983, 607.337 285.994 C 604.231 286, 604.194 285.945, 605.316 282.975 C 606.139 280.794, 606.156 279.467, 605.378 278.225 C 604.060 276.119, 598.952 275.448, 597.245 277.155 M 599.173 280.659 C 599.368 281.672, 600.196 282.500, 601.014 282.500 C 603.157 282.500, 602.848 279.594, 600.659 279.173 C 599.323 278.916, 598.916 279.323, 599.173 280.659 M 682.446 283.087 C 681.416 284.755, 683.733 286.667, 685.113 285.287 C 686.267 284.133, 685.545 282, 684 282 C 683.515 282, 682.816 282.489, 682.446 283.087 M 562.190 285.750 C 562.376 286.712, 563.190 287.500, 564 287.500 C 564.810 287.500, 565.624 286.712, 565.810 285.750 C 566.046 284.522, 565.506 284, 564 284 C 562.494 284, 561.954 284.522, 562.190 285.750 M 709.812 305.036 C 707.784 306.107, 705.479 307.906, 704.689 309.034 C 703.899 310.162, 702.858 311.012, 702.376 310.924 C 697.640 310.056, 691.995 315.093, 692.010 320.173 C 692.022 324.401, 695.879 332.675, 699.513 336.270 C 704.506 341.210, 706.215 341.014, 719.750 333.949 C 726.487 330.432, 732 327.291, 732 326.969 C 732 326.646, 731.397 325.558, 730.661 324.551 C 729.396 322.822, 728.732 323.035, 718.805 328.359 C 713.022 331.462, 707.122 334, 705.696 334 C 700.131 334, 694.608 321.535, 698.464 317.679 C 700.966 315.177, 703.355 315.637, 705.343 319.004 C 706.823 321.509, 707.435 321.838, 709.032 320.983 C 710.871 319.999, 710.879 319.815, 709.243 316.384 C 707.605 312.948, 707.615 312.755, 709.490 311.384 C 711.231 310.111, 711.518 310.168, 712.164 311.913 C 712.873 313.831, 715.897 316, 717.863 316 C 719.778 316, 722 312.832, 722 310.103 C 722 306.930, 718.325 302.978, 715.436 303.044 C 714.371 303.069, 711.841 303.965, 709.812 305.036 M 287.757 307.034 C 273.833 309.378, 262.483 315.524, 252.262 326.253 C 245.379 333.479, 238.870 345.494, 237.026 354.377 C 236.289 357.927, 236.034 386.995, 236.223 446.038 L 236.500 532.500 239.185 539.197 C 246.565 557.601, 260.577 570.999, 279 577.263 C 285.439 579.453, 286.187 579.477, 359.250 579.779 L 433 580.085 433 651.728 C 433 732.105, 432.826 729.896, 440.278 744.348 C 447.256 757.881, 459.915 768.685, 475.333 774.267 L 481.500 776.500 569 776.500 L 656.500 776.500 663.950 774.060 C 678.804 769.196, 692.885 757.107, 699.544 743.500 C 706.153 729.997, 706 732.155, 706 652.290 L 706 580 776.750 579.983 C 856.203 579.963, 855.445 580.021, 869.942 572.874 C 887.040 564.446, 899.289 547.914, 902.584 528.822 C 904.850 515.691, 904.175 359.981, 901.819 352.339 C 896.013 333.506, 883.980 319.402, 867.236 311.806 C 856.087 306.747, 849.388 306.074, 809.855 306.035 L 774.209 306 777.548 316.295 C 779.384 321.957, 781.644 330.732, 782.570 335.795 L 784.254 345 814.761 345 C 834.727 345, 846.584 345.394, 849.078 346.141 C 854.600 347.796, 859.913 352.617, 862.619 358.429 L 864.980 363.500 864.990 442.384 C 864.998 501.651, 864.696 522.292, 863.778 525.384 C 862.177 530.774, 854.542 538.478, 849.381 539.911 C 846.758 540.640, 819.569 540.992, 765.500 541 C 713.572 541.007, 684.195 541.374, 681.781 542.044 C 677.290 543.291, 672.540 547.121, 670.214 551.369 C 668.646 554.234, 668.457 561.604, 668 638 C 667.502 721.174, 667.492 721.516, 665.342 725.500 C 662.816 730.180, 658.899 734.027, 654 736.636 C 650.729 738.378, 647.452 738.500, 604 738.500 L 557.500 738.500 557 641.459 L 556.500 544.418 550.500 536.071 C 541.857 524.047, 533.220 516.614, 509.500 500.789 L 488.500 486.778 488.246 611.889 C 488.035 715.948, 487.766 737, 486.646 737 C 484.278 737, 477.361 731.319, 474.891 727.346 L 472.500 723.500 472 639.500 C 471.544 562.927, 471.350 555.226, 469.801 552.398 C 467.384 547.986, 461.690 543.286, 457.277 542.060 C 454.787 541.369, 426.208 541.009, 373.399 541.006 C 316.190 541.002, 292.327 540.675, 289.899 539.862 C 284.724 538.129, 280.338 534.431, 277.272 529.216 L 274.500 524.500 274.208 446 C 274.004 391.341, 274.250 366.133, 275.016 363 C 276.597 356.537, 280.250 351.525, 285.728 348.305 L 290.500 345.500 341.711 345.216 L 392.922 344.931 393.449 341.716 C 395.435 329.580, 396.270 325.543, 398.356 318 C 399.649 313.325, 401.046 308.712, 401.460 307.750 C 402.173 306.095, 399.247 306.006, 347.357 306.118 C 317.186 306.182, 290.366 306.595, 287.757 307.034 M 714.283 346.912 C 706.324 347.560, 704.399 348.756, 703.418 353.659 C 702.937 356.063, 703.281 357.281, 704.896 358.896 C 707.551 361.551, 709.444 361.556, 712.087 358.913 C 713.548 357.452, 713.992 356.104, 713.568 354.413 C 712.963 352.004, 712.976 352, 721.458 352 C 729.186 352, 730.081 352.203, 731.358 354.250 C 733.593 357.831, 734.139 361.769, 732.993 366.027 C 731.728 370.725, 731.606 370.766, 716 371.764 C 704.577 372.495, 704.502 372.516, 704.772 374.938 C 704.921 376.279, 705.150 377.483, 705.280 377.613 C 705.410 377.743, 711.269 377.473, 718.299 377.013 C 732.741 376.068, 735.157 375.085, 737.036 369.390 C 738.433 365.157, 737.844 355.871, 735.911 351.675 C 733.430 346.287, 730.329 345.604, 714.283 346.912 M 749.428 356.037 C 746.060 357.283, 744.537 359.737, 746.021 361.525 C 747.152 362.888, 747.481 362.875, 749.106 361.404 C 752.033 358.755, 754.008 360.313, 753.944 365.219 C 753.823 374.375, 749.286 380.512, 747.028 374.573 C 745.822 371.401, 743.200 371.210, 742.577 374.250 C 740.878 382.533, 740.922 383.746, 742.943 384.275 C 744.316 384.634, 745.121 384.195, 745.546 382.855 C 745.986 381.470, 746.723 381.095, 748.130 381.541 C 750.871 382.411, 754.884 379.521, 756.584 375.454 C 758.455 370.976, 758.424 361.050, 756.531 358.347 C 754.790 355.863, 752.188 355.016, 749.428 356.037 M 691 805.607 C 691 820.063, 690.871 821.164, 689.250 820.534 C 681.492 817.521, 668.499 817.589, 659.396 820.690 C 652.575 823.014, 644.990 830.794, 642.003 838.531 C 640.087 843.494, 639.682 846.522, 639.599 856.500 C 639.485 870.358, 641.058 876.661, 646.504 884.160 C 659.487 902.036, 703.784 900.079, 711.653 881.282 C 712.713 878.749, 713 868.692, 713 834.032 L 713 790 702 790 L 691 790 691 805.607 M 430.221 838.428 C 430.493 882.769, 430.550 883.923, 432.597 886.678 C 440.164 896.862, 468.962 900.051, 484.661 892.442 C 490.659 889.534, 496.422 883.560, 499.127 877.447 C 503.851 866.766, 503.774 847.080, 498.966 836.176 C 496.023 829.501, 489.640 823.384, 483.032 820.906 C 475.570 818.107, 464.511 818.069, 456.750 820.815 L 451 822.849 451 807.924 L 451 793 440.471 793 L 429.941 793 430.221 838.428 M 601 802.500 L 601 811 612.500 811 L 624 811 624 802.500 L 624 794 612.500 794 L 601 794 601 802.500 M 283.230 796.485 C 275.757 798.590, 272.360 800.553, 267.451 805.604 C 259.078 814.219, 256.992 829.018, 262.722 839.159 C 266.586 845.999, 271.960 849.638, 284.500 853.908 C 296.922 858.137, 303.618 861.417, 304.964 863.933 C 306.306 866.441, 306.286 870.597, 304.920 873.150 C 301.171 880.154, 280.364 879.204, 267.472 871.441 C 264.329 869.548, 261.587 868, 261.379 868 C 261.170 868, 261 872.918, 261 878.928 L 261 889.856 266.250 891.813 C 274.633 894.936, 282.272 896.148, 293.770 896.178 C 307.651 896.214, 314.166 893.964, 321.543 886.588 C 327.754 880.377, 330.009 874.491, 329.978 864.572 C 329.931 849.555, 322.893 842.624, 301.012 836.048 C 287.344 831.941, 284 829.376, 284 823 C 284 818.324, 285.493 816.359, 290.495 814.449 C 298.797 811.278, 312.226 814.359, 321.740 821.615 L 325.065 824.151 324.782 812.425 L 324.500 800.698 318 798.230 C 309.673 795.068, 291.499 794.156, 283.230 796.485 M 367.531 819.052 C 364.248 819.564, 358.735 820.923, 355.281 822.073 L 349 824.163 349 833.911 L 349 843.659 354.750 840.832 C 368.648 833.999, 384.895 835.334, 388.025 843.566 C 388.877 845.806, 389.432 853.022, 388.750 852.987 C 388.613 852.980, 385.647 852.080, 382.161 850.987 C 378.266 849.766, 373.013 849, 368.537 849 C 351.467 849, 342.493 856.974, 342.661 871.991 C 342.821 886.374, 350.138 893.545, 367.247 896.090 C 378.074 897.700, 393.613 895.925, 400.955 892.239 C 410.529 887.432, 410.500 887.530, 410.500 860.176 L 410.500 836.500 407.695 831.728 C 402.930 823.621, 394.336 819.360, 381.172 818.578 C 376.952 818.327, 370.814 818.540, 367.531 819.052 M 539.500 818.940 C 532.767 820.035, 526.089 821.905, 522.750 823.631 C 520.060 825.020, 520 825.247, 520 834.026 C 520 838.962, 520.293 843, 520.650 843 C 521.008 843, 523.596 841.879, 526.400 840.509 C 539.587 834.068, 555.922 835.289, 558.917 842.941 C 560.443 846.838, 561.331 853.004, 560.361 852.967 C 559.888 852.949, 557.025 852.064, 554 851 C 547.670 848.773, 536.327 848.385, 529.299 850.155 C 523.369 851.648, 516.623 857.993, 515.110 863.500 C 512.386 873.417, 514.355 882.715, 520.418 888.554 C 526.618 894.527, 533.500 896.446, 548.511 896.387 C 566.760 896.315, 578.104 892.116, 581.062 884.337 C 582.379 880.873, 582.240 840.419, 580.895 835.500 C 579.327 829.769, 571.609 822.555, 564.920 820.569 C 558.460 818.651, 546.136 817.861, 539.500 818.940 M 753.081 819.588 C 746.293 821.414, 742.214 823.914, 737.484 829.149 C 732.815 834.317, 730.464 839.619, 728.936 848.420 C 724.435 874.361, 737.629 893.810, 761.500 896.420 C 768.250 897.158, 779.882 895.865, 787.750 893.500 L 793 891.923 793 882.354 C 793 873.638, 792.844 872.849, 791.250 873.496 C 772.709 881.015, 758.607 879.762, 753.184 870.114 C 749.020 862.704, 748.113 863, 775 863 L 799 863 798.983 857.750 C 798.960 850.881, 796.582 839.834, 793.961 834.419 C 792.813 832.048, 789.990 828.271, 787.687 826.026 C 780.272 818.799, 765.936 816.132, 753.081 819.588 M 835.271 819.540 C 825.453 822.184, 818.778 827.859, 814.511 837.190 C 807.174 853.231, 809.335 873.483, 819.601 884.901 C 830.020 896.490, 849.035 899.752, 869.750 893.506 L 875 891.923 875 882.515 L 875 873.108 869.250 875.118 C 856.990 879.404, 845.821 879.415, 840 875.149 C 836.779 872.788, 833 867.229, 833 864.852 C 833 863.100, 834.309 863, 857.148 863 L 881.296 863 880.700 854.250 C 879.021 829.607, 867.780 817.817, 846.201 818.066 C 843.065 818.102, 838.147 818.765, 835.271 819.540 M 602 858 L 602 894 613 894 L 624 894 624 858 L 624 822 613 822 L 602 822 602 858 M 755.657 837.996 C 753.556 839.841, 751.855 842.530, 751.229 844.996 L 750.213 849 763.737 849 L 777.262 849 776.677 845.394 C 775.475 837.987, 771.679 835, 763.470 835 C 760.008 835, 758.342 835.639, 755.657 837.996 M 840.030 836.279 C 836.879 837.874, 833 843.595, 833 846.648 L 833 849 846.452 849 L 859.904 849 858.487 844.250 C 856.549 837.758, 853.172 834.996, 847.194 835.015 C 844.612 835.023, 841.389 835.592, 840.030 836.279 M 455 837.306 L 451.500 838.500 451.226 855.772 C 450.953 872.987, 450.961 873.052, 453.431 875.522 C 454.935 877.026, 457.205 878.069, 459.205 878.175 C 475.224 879.026, 480.509 873.892, 480.489 857.500 C 480.479 849.787, 480.121 847.856, 477.984 844 C 476.448 841.230, 474.145 838.828, 471.995 837.752 C 467.982 835.744, 460.181 835.540, 455 837.306 M 670.020 837.752 C 663.125 841.216, 659.937 850.336, 661.434 862.316 C 662.798 873.236, 668.284 877.990, 679.527 877.996 C 691.189 878.002, 691 878.356, 691 856.541 L 691 838.196 687.851 837.098 C 683.047 835.423, 673.993 835.755, 670.020 837.752 M 369.329 864.396 C 365.240 866.254, 363.644 869.291, 364.463 873.653 C 365.494 879.151, 369.695 881.174, 379.292 880.792 C 384.848 880.570, 387.355 880.054, 388.027 878.991 C 389.390 876.834, 389.239 865.265, 387.835 864.398 C 385.449 862.923, 372.571 862.921, 369.329 864.396 M 541.501 864.002 C 537.559 865.262, 536 867.557, 536 872.102 C 536 875.029, 536.656 876.375, 539.077 878.411 C 541.782 880.687, 543.050 881, 549.577 881 C 559.308 881, 561 879.527, 561 871.059 C 561 867.791, 560.535 864.831, 559.967 864.479 C 558.152 863.358, 544.611 863.007, 541.501 864.002 M 321 953.500 L 321 1005 332 1005 L 343 1005 343 978.026 L 343 951.051 346.104 949.446 C 349.996 947.434, 358.591 947.174, 362.855 948.940 C 368.967 951.472, 369.463 953.730, 369.828 980.750 L 370.156 1005 380.633 1005 L 391.110 1005 390.805 975.250 C 390.512 946.651, 390.413 945.338, 388.259 941.308 C 385.236 935.653, 380.652 932.382, 373 930.422 C 365.539 928.510, 357.443 929.079, 349.579 932.068 C 346.786 933.130, 344.163 933.999, 343.750 933.999 C 343.337 934, 343 926.800, 343 918 L 343 902 332 902 L 321 902 321 953.500 M 225 956.430 L 225 1005 237 1005 L 249 1005 249 989 L 249 973 262.451 973 C 269.849 973, 278.127 972.523, 280.846 971.940 C 291.785 969.594, 301.348 960.849, 304.083 950.690 C 305.719 944.617, 305.395 932.707, 303.435 926.804 C 301.188 920.039, 295.054 913.955, 287.407 910.907 C 281.782 908.664, 280.151 908.535, 253.250 908.206 L 225 907.861 225 956.430 M 249 940.500 L 249 955 259.750 954.985 C 271.440 954.969, 274.058 954.182, 277.404 949.677 C 279.016 947.505, 279.500 945.386, 279.500 940.500 C 279.500 929.150, 275.192 926.152, 258.750 926.056 L 249 926 249 940.500 M 431.387 929.936 C 425.526 930.867, 416.093 933.795, 414.250 935.255 C 413.416 935.915, 413 939.237, 413 945.229 C 413 952.044, 413.302 954.081, 414.250 953.664 C 423.363 949.650, 428.823 947.884, 433.668 947.382 C 445.586 946.147, 453 950.855, 453 959.660 C 453 962.878, 452.643 964.017, 451.750 963.643 C 444.880 960.765, 438.985 959.806, 430.460 960.179 C 422.341 960.534, 420.623 960.946, 416.432 963.542 C 409.707 967.707, 406.993 973.147, 407.022 982.407 C 407.057 993.652, 411.418 1000.638, 420.871 1004.592 C 431.260 1008.937, 455.121 1008.211, 464.955 1003.251 C 474.300 998.539, 474.448 998.102, 474.831 974.180 C 475.248 948.097, 474.566 944.471, 468.017 937.921 C 464.622 934.527, 461.695 932.674, 457.873 931.500 C 451.539 929.554, 438.602 928.790, 431.387 929.936 M 516.500 930.418 C 509.505 932.035, 499.474 935.677, 496.250 937.769 L 494 939.230 494 972.115 L 494 1005 505 1005 L 516 1005 516 976.447 L 516 947.895 530.002 948.197 L 544.003 948.500 544.002 940.348 L 544 932.196 540.750 931.022 C 535.652 929.182, 523.192 928.871, 516.500 930.418 M 582 930.527 C 577.325 931.260, 569.788 933.036, 565.250 934.473 L 557 937.087 557 971.044 L 557 1005 568 1005 L 579 1005 579 977.071 L 579 949.142 584.348 948.032 C 590.480 946.759, 597.030 947.812, 600.066 950.560 C 603.344 953.526, 603.989 958.730, 603.994 982.250 L 604 1005 614.500 1005 L 625 1005 625 977.535 C 625 950.080, 625.001 950.070, 627.250 948.856 C 631.033 946.814, 641.576 947.296, 644.760 949.656 C 649.322 953.038, 649.882 956.507, 649.944 981.750 L 650 1005 660.500 1005 L 671 1005 671 976.626 C 671 953.682, 670.706 947.419, 669.466 943.904 C 666.616 935.826, 660.837 931.819, 649.363 929.966 C 641.494 928.694, 634.725 929.272, 623.857 932.143 C 616.944 933.969, 615.938 934.019, 613.336 932.674 C 609.773 930.831, 599.994 928.968, 594.566 929.097 C 592.330 929.150, 586.675 929.794, 582 930.527 M 711.387 929.933 C 705.520 930.868, 696.091 933.797, 694.250 935.255 C 693.416 935.915, 693 939.237, 693 945.229 C 693 952.044, 693.302 954.081, 694.250 953.664 C 706.751 948.158, 708.739 947.613, 716.500 947.557 C 728.501 947.471, 733 950.899, 733 960.130 C 733 962.972, 732.630 964.012, 731.750 963.643 C 724.880 960.765, 718.985 959.806, 710.460 960.179 C 702.337 960.534, 700.627 960.944, 696.445 963.542 C 690.272 967.375, 687.661 972.366, 687.154 981.302 C 686.042 1000.915, 700.451 1009.717, 729.192 1006.983 C 737.114 1006.230, 740.763 1005.366, 744.955 1003.251 C 754.553 998.411, 754.500 998.592, 754.500 970.674 C 754.500 949.676, 754.274 946.086, 752.776 943.350 C 750.320 938.862, 743.543 933.378, 738.133 931.500 C 732.666 929.602, 718.622 928.779, 711.387 929.933 M 798.166 930.480 C 790.170 932.284, 784.313 935.702, 779.132 941.587 C 772.869 948.703, 770.692 955.441, 770.598 968 C 770.555 973.783, 771.083 980.368, 771.774 982.657 C 774.953 993.201, 785.018 1002.467, 796.556 1005.473 C 805.293 1007.748, 817.147 1007.419, 825 1004.681 L 831.500 1002.416 831.789 993.112 C 832.015 985.824, 831.798 983.924, 830.789 984.345 C 822.849 987.656, 815.283 989.210, 809.865 988.644 C 797.283 987.329, 792.141 981.146, 792.044 967.218 C 791.966 956.033, 796.447 950.087, 806.535 947.993 C 812.722 946.708, 818.038 947.303, 825.500 950.115 C 828.250 951.151, 830.854 951.999, 831.288 951.999 C 831.721 952, 831.946 947.855, 831.788 942.789 L 831.500 933.577 825.880 931.869 C 817.656 929.368, 805.738 928.771, 798.166 930.480 M 842 931.835 C 842 932.294, 848.557 948.787, 856.571 968.485 C 867.305 994.870, 870.978 1004.953, 870.519 1006.779 C 870.177 1008.141, 868.605 1010.549, 867.026 1012.128 L 864.154 1015 544.577 1015 L 225 1015 225 1024.500 L 225 1034 545.750 1033.994 C 774.132 1033.990, 867.630 1033.675, 870.425 1032.899 C 875.545 1031.477, 884.594 1022.345, 888.240 1014.919 C 890.618 1010.076, 921 932.611, 921 931.390 C 921 931.141, 915.751 931.063, 909.336 931.218 L 897.672 931.500 890.114 955.228 C 885.957 968.278, 882.292 978.628, 881.969 978.228 C 881.647 977.828, 878.350 968.050, 874.642 956.500 C 870.935 944.950, 867.483 934.487, 866.972 933.250 C 866.081 931.093, 865.546 931, 854.021 931 C 847.410 931, 842 931.376, 842 931.835 M 433.242 975.494 C 427.255 978.096, 426.740 984.921, 432.186 989.503 C 434.669 991.593, 436.191 992, 441.512 992 C 445.009 992, 449.024 991.561, 450.435 991.025 C 452.869 990.099, 453 989.673, 453 982.650 L 453 975.250 449.875 974.625 C 444.653 973.581, 436.687 973.997, 433.242 975.494 M 713.242 975.494 C 707.522 977.980, 706.748 984.536, 711.633 989.125 C 713.587 990.961, 715.485 991.516, 720.799 991.806 C 724.484 992.006, 728.737 991.694, 730.250 991.110 C 732.907 990.085, 733 989.798, 733 982.650 L 733 975.250 729.875 974.625 C 724.653 973.581, 716.687 973.997, 713.242 975.494" stroke="none" fill="#fbfbfb" fill-rule="evenodd"/></svg>